<?xml version="1.0" standalone="no"?>
<!DOCTYPE svg PUBLIC "-//W3C//DTD SVG 20010904//EN"
 "http://www.w3.org/TR/2001/REC-SVG-20010904/DTD/svg10.dtd">
<svg version="1.0" xmlns="http://www.w3.org/2000/svg"
 width="500.000000pt" height="500.000000pt" viewBox="0 0 500.000000 500.000000"
 preserveAspectRatio="xMidYMid meet">
<metadata>
Created by potrace 1.14, written by Peter Selinger 2001-2017
</metadata>
<g transform="translate(0.000000,500.000000) scale(0.100000,-0.100000)"
fill="#000000" stroke="none">
<path d="M3985 4681 c-188 -93 -380 -185 -550 -265 -55 -26 -127 -60 -160 -76
-33 -16 -68 -32 -78 -35 -26 -7 -17 -37 14 -45 14 -4 41 -14 60 -23 70 -31
194 -77 208 -77 9 0 11 -6 6 -17 -4 -10 -14 -36 -22 -58 -8 -22 -18 -44 -22
-50 -5 -5 -14 -28 -21 -50 -7 -22 -22 -62 -35 -90 -27 -62 -54 -127 -95 -230
-18 -44 -41 -98 -51 -121 -11 -23 -19 -45 -19 -49 0 -5 -8 -27 -19 -49 -17
-38 -51 -119 -106 -256 -12 -30 -36 -91 -54 -135 -18 -44 -39 -93 -47 -108 -8
-16 -14 -33 -14 -38 0 -4 -13 -38 -30 -74 -16 -36 -30 -68 -30 -71 0 -4 -11
-32 -24 -63 -13 -31 -38 -92 -56 -136 -18 -44 -41 -98 -51 -121 -11 -23 -19
-45 -19 -49 0 -5 -8 -27 -19 -49 -10 -23 -33 -77 -51 -121 -55 -137 -73 -179
-90 -220 -9 -22 -25 -60 -35 -85 -10 -25 -23 -58 -31 -75 -7 -16 -29 -70 -49
-120 -20 -49 -44 -110 -55 -135 -10 -25 -33 -81 -50 -125 -18 -44 -41 -98 -51
-121 -11 -22 -19 -44 -19 -49 0 -4 -9 -26 -20 -49 -10 -23 -34 -77 -53 -121
l-33 -80 -337 -3 c-379 -3 -357 -8 -317 73 11 22 45 105 76 185 30 80 64 164
75 187 10 24 19 49 19 56 0 7 6 21 13 32 7 11 19 40 27 65 7 25 18 50 22 57 8
10 45 102 52 128 1 6 8 21 13 35 11 25 58 142 93 230 10 25 30 73 44 106 14
34 26 65 26 70 0 4 8 26 19 48 10 23 24 57 31 76 7 19 18 49 25 65 8 17 27 64
43 105 17 41 44 109 60 150 17 41 43 107 57 145 15 39 31 75 35 80 4 6 15 35
25 65 10 30 21 60 25 65 4 6 15 35 26 65 10 30 21 60 25 65 4 6 15 33 24 60 9
28 25 68 35 90 10 22 27 62 38 89 l19 48 19 -48 c10 -27 33 -78 51 -114 18
-36 33 -69 33 -73 0 -5 11 -32 24 -60 13 -29 40 -90 61 -137 59 -138 70 -160
76 -160 12 0 26 24 39 65 7 22 21 56 31 75 11 19 19 39 19 44 0 4 11 34 24 65
13 31 38 92 56 136 52 129 72 177 91 220 9 22 25 62 33 89 9 27 23 58 31 69 8
12 15 27 15 34 0 7 14 42 30 78 17 36 30 70 30 76 0 5 9 27 19 47 28 56 35
105 20 149 -7 21 -16 43 -20 48 -4 6 -14 28 -22 50 -12 34 -117 294 -157 390
-20 46 -36 87 -50 125 -7 19 -18 41 -23 48 -7 9 -108 12 -442 12 -334 0 -435
-3 -442 -12 -5 -7 -16 -29 -23 -48 -7 -19 -21 -53 -30 -75 -22 -51 -50 -117
-95 -230 -20 -49 -45 -108 -55 -130 -22 -47 -62 -146 -80 -195 -7 -19 -21 -55
-33 -80 -31 -70 -47 -107 -157 -375 -34 -82 -70 -168 -81 -191 -10 -23 -19
-44 -19 -48 0 -4 -11 -31 -24 -59 -12 -29 -38 -88 -56 -132 -59 -146 -81 -200
-95 -230 -8 -16 -30 -70 -50 -120 -68 -170 -77 -190 -96 -227 -10 -20 -19 -42
-19 -47 0 -6 -11 -34 -24 -63 -13 -29 -34 -78 -46 -108 -12 -30 -30 -75 -40
-100 -10 -25 -28 -70 -40 -100 -12 -30 -25 -59 -29 -65 -4 -5 -15 -32 -25 -60
-10 -27 -26 -68 -36 -90 -10 -22 -28 -65 -41 -95 -12 -30 -30 -73 -39 -95 -9
-22 -25 -60 -35 -85 -10 -25 -26 -63 -35 -85 -32 -75 -59 -140 -95 -230 -20
-49 -46 -108 -56 -131 -10 -22 -19 -44 -19 -49 0 -4 -9 -26 -19 -49 -11 -23
-36 -81 -56 -131 -60 -149 -76 -188 -95 -230 -23 -50 -63 -149 -80 -195 -7
-19 -20 -53 -30 -75 -10 -22 -30 -69 -45 -105 -14 -36 -30 -73 -36 -82 -5 -10
-9 -29 -9 -43 l0 -25 1324 0 1324 0 12 33 c7 17 20 50 30 72 26 62 55 132 95
230 20 50 46 108 56 131 10 22 19 44 19 49 0 4 8 26 19 49 21 46 43 99 96 231
20 50 44 108 55 130 18 41 28 63 100 240 23 55 47 114 54 130 33 73 74 172
145 350 18 44 41 98 51 120 18 39 29 66 99 240 18 44 39 94 46 110 16 36 50
117 100 240 67 165 86 210 101 237 8 14 14 31 14 37 0 6 11 34 24 63 13 29 34
78 46 108 12 30 30 75 40 100 10 25 28 70 40 100 12 30 25 60 29 65 4 6 15 33
25 60 10 28 26 68 36 90 10 22 28 65 41 95 12 30 30 73 39 95 10 22 30 70 45
106 l29 67 35 -13 c41 -15 106 -41 136 -55 72 -33 125 -47 135 -36 9 12 -24
108 -75 221 -7 17 -21 50 -31 75 -9 25 -21 50 -25 55 -4 6 -17 37 -30 70 -12
33 -26 65 -30 71 -5 6 -20 42 -33 80 -21 60 -56 144 -108 264 -9 19 -33 76
-53 125 -44 105 -50 115 -79 114 -11 0 -102 -40 -201 -88z"/>
<path d="M3910 2246 c0 -7 -11 -38 -24 -67 -13 -30 -38 -90 -56 -134 -17 -44
-40 -98 -50 -120 -22 -50 -58 -134 -105 -250 -20 -49 -50 -119 -65 -155 -16
-36 -45 -105 -65 -155 -20 -49 -44 -108 -54 -130 -48 -103 -48 -108 -11 -195
11 -25 44 -110 75 -190 30 -80 64 -163 75 -185 10 -22 26 -61 34 -87 9 -26 20
-56 25 -65 5 -10 24 -54 41 -98 18 -44 43 -105 56 -135 l23 -55 486 -3 c318
-1 485 1 485 8 0 5 -13 40 -29 77 -16 38 -43 104 -61 148 -18 44 -44 103 -56
132 -13 28 -24 55 -24 59 0 4 -9 26 -19 48 -22 48 -56 127 -106 251 -50 123
-84 204 -100 240 -7 17 -28 66 -46 110 -64 158 -82 201 -105 250 -13 28 -24
54 -24 59 0 5 -9 27 -19 50 -11 23 -36 82 -56 131 -68 169 -77 190 -95 230
-20 42 -83 197 -93 228 -7 20 -37 23 -37 3z"/>
</g>
</svg>
